<mxfile host="app.diagrams.net" modified="2023-04-10T17:40:19.817Z" agent="Mozilla/5.0 (Windows NT 10.0; Win64; x64) AppleWebKit/537.36 (KHTML, like Gecko) Chrome/112.0.0.0 Safari/537.36" version="21.1.5" etag="EmYCLul0ibThWbKNotfQ" type="github">
  <diagram name="第 1 页" id="6ezDi61I6U07wYLLwbyL">
    <mxGraphModel>
      <root>
        <mxCell id="0" />
        <mxCell id="1" parent="0" />
      </root>
    </mxGraphModel>
  </diagram>
</mxfile>
